<?xml version="1.0" encoding="iso-8859-1"?>
<!-- Generator: Adobe Illustrator 19.0.0, SVG Export Plug-In . SVG Version: 6.00 Build 0)  -->
<svg version="1.1" id="Layer_1" xmlns="http://www.w3.org/2000/svg" xmlns:xlink="http://www.w3.org/1999/xlink" x="0px" y="0px"
	 viewBox="0 0 490.868 490.868" style="enable-background:new 0 0 490.868 490.868;" xml:space="preserve">
<g>
	<path d="M483.572,431.224l-74.2-74.2c5.5-13,10.5-26.4,14.9-40.3c44.7-142.5,10.4-278.8-77-310c-38.5-13.5-83.2-4.2-124.8,26
		c-41.6-31.2-86.3-40.6-124.8-26c-87.4,31.2-121.7,167.5-77,310c21.8,70.7,58.9,129.5,105.1,166.5c26.8,21.4,47.2-7.2,46.8-23.9
		c-1.3-57,27-121.7,51-121.7c23.9,0,52.6,58.8,51,121.7c-1,38.5,42.5,30.3,44.7,23.9c27.6-22.6,52.2-53.1,72.1-89.1l65.2,65.2
		c11.7,11.7,25,4.2,27,1C491.872,452.024,491.872,439.524,483.572,431.224z M314.972,433.224c-5.2-77-43.7-135.2-91.5-135.2
		c-47.9,0-86.3,58.3-91.6,135.2c-30.2-32.3-56.2-77-71.8-128c-36.4-117.6-12.5-236.2,52-260.1c8.3-3.1,43-17.4,97.8,29.1
		c8.3,6.2,19.8,6.2,27,0c33.3-29.1,68.7-39.5,97.8-29.1c64.5,23.9,88.4,142.5,52,260.1c-2.3,7.4-4.7,14.6-7.4,21.7l-6.1-6.1
		c-7.3-7.3-11.4-18.7-11.4-31.2v-41.6c0-5.2-2.1-10.4-6.2-14.6l-98.8-100.9c-8.3-8.3-20.8-8.3-29.1,0c-5.2,5.2-7.1,12-5.9,18.4
		l-27.4,27.4c-8.3,8.3-8.3,20.8,0,29.1s20.8,8.3,29.1,0l25-25l8.8,8.8l-23.4,23.6c-8.3,8.3-8.3,20.8,0,29.1c11.5,11.5,25,4.2,29.1,0
		l23.4-23.4l6.8,6.8l-23.9,23.9c-8.3,8.3-8.3,20.8,0,29.1c11.7,11.7,26,4.2,29.1,0l23.9-23.9v33.3c0,22.9,8.3,43.7,23.9,59.3
		l16.2,16.2C348.872,391.324,332.672,414.424,314.972,433.224z"/>
</g>
<g>
</g>
<g>
</g>
<g>
</g>
<g>
</g>
<g>
</g>
<g>
</g>
<g>
</g>
<g>
</g>
<g>
</g>
<g>
</g>
<g>
</g>
<g>
</g>
<g>
</g>
<g>
</g>
<g>
</g>
</svg>
